<svg version="1.2" xmlns="http://www.w3.org/2000/svg" viewBox="0 0 425 200" width="425" height="200"><defs><linearGradient id="P" gradientUnits="userSpaceOnUse"/><linearGradient id="g1" x2="1" href="#P" gradientTransform="matrix(0,-181.065,373.917,0,186.958,181.065)"><stop stop-color="#30379a"/><stop offset="1" stop-color="#0953db"/></linearGradient></defs><style>.a{fill:url(#g1)}.b{opacity:.17;fill:#fff}.c{fill:#fff;stroke:#000;paint-order:stroke fill markers;stroke-width:2.6}.d{fill:#fff;stroke:#000;paint-order:stroke fill markers;stroke-width:2}</style><path fill-rule="evenodd" class="a" d="m80.5 0h212.9c44.5 0 80.5 36 80.5 80.5v20.1c0 44.4-36 80.5-80.5 80.5h-212.9c-44.5 0-80.5-36.1-80.5-80.5v-20.1c0-44.5 36-80.5 80.5-80.5z"/><path fill-rule="evenodd" class="b" d="m78.5 8h208.9c25.6 0 46.3 20.8 46.3 46.3 0 25.6-20.7 46.3-46.3 46.3h-208.9c-25.6 0-46.3-20.7-46.3-46.3 0-25.5 20.7-46.3 46.3-46.3z"/><path class="c" d="m101.8 99.6v39.7q0 11.6 1.4 14.7 1.5 3 5.1 4.8 3.7 1.8 13.4 1.8v3.9h-73v-3.9q10 0 13.5-1.8 3.6-1.9 4.9-4.9 1.6-3 1.6-14.6v-93q0-11.6-1.6-14.6-1.3-3.1-4.9-4.8-3.6-1.8-13.5-1.8v-3.9h62.6q30.9 0 44.4 10.9 13.5 11 13.5 27.5 0 14-8.7 24-8.7 9.9-23.9 13.4-10.3 2.6-34.8 2.6zm4.3-70.2h-4.3v62q3.5 0.1 5.3 0.1 12.9 0 19.9-7.5 7-7.8 7-23.8 0-16-7-23.4-7-7.4-20.9-7.4zm206.6-11.5h3.9v50.5h-3.9q-7.1-20.7-21.3-31.5-14.2-10.7-31-10.7-16.1 0-26.8 9-10.7 9-15.2 25.2-4.4 16.2-4.4 33.2 0 20.6 4.8 36.1 4.9 15.6 15.7 22.8 10.9 7.3 25.9 7.3 5.1 0 10.6-1 5.5-1.2 11.2-3.3v-29.8q0-8.5-1.2-10.9-1.1-2.6-4.9-4.5-3.6-2-8.7-2h-3.8v-3.9h69.8v3.9q-7.9 0.5-11 2.2-3.1 1.6-4.8 5.4-1 2-1 9.8v29.8q-13.8 6.2-28.7 9.3-14.8 3.1-30.8 3.1-20.4 0-34-5.5-13.5-5.6-23.9-14.6-10.3-9.1-16.1-20.4-7.4-14.6-7.4-32.7 0-32.3 22.8-54.6 22.8-22.3 57.3-22.3 10.7 0 19.3 1.7 4.6 0.8 15 4.8 10.5 3.9 12.4 3.9 3 0 5.5-2 2.6-2.3 4.7-8.3z"/><path class="d" d="m332.2 152.8h41.8v12.1h-1.3q-1-4.2-2.4-6-1.4-1.9-3.7-2.9-1.3-0.6-4.5-0.6h-3.5v34.5q0 3.5 0.4 4.4 0.4 0.8 1.5 1.5 1.2 0.6 3.2 0.6h1.5v1.2h-24.3v-1.2h1.5q2 0 3.3-0.7 0.9-0.4 1.4-1.6 0.4-0.8 0.4-4.2v-34.5h-3.4q-4.7 0-6.8 1.9-3 2.6-3.8 7.6h-1.3zm76.6 0h15.3v1.3q-2.6 0.3-4.5 2.6-1.5 1.6-4.4 7.7l-15.9 34.3h-1.2l-15.9-35.7q-2.9-6.4-3.9-7.5-0.9-1.2-3.7-1.4v-1.3h22.3v1.3h-0.7q-3 0-4.2 0.7-0.7 0.4-0.7 1.4 0 0.6 0.3 1.5 0.2 0.7 1.8 4.3l9.9 22.3 9.2-19.9q1.6-3.6 2-4.8 0.4-1.2 0.4-2.1 0-1-0.6-1.7-0.5-0.8-1.6-1.2-1.5-0.5-3.9-0.5z"/></svg>