<svg version="1.2" xmlns="http://www.w3.org/2000/svg" viewBox="0 0 718 338" width="718" height="338">
	<defs>
		<linearGradient id="g1" x2="1" gradientUnits="userSpaceOnUse" gradientTransform="matrix(0,-306,631.698,0,315.849,306)">
			<stop offset="0" stop-color="#30379a"/>
			<stop offset="1" stop-color="#0953db"/>
		</linearGradient>
	</defs>
	<style>
		.s0 { fill: url(#g1) } 
		.s1 { opacity: .17;fill: #ffffff } 
		.s2 { fill: #ffffff;stroke: #000000;paint-order:stroke fill markers;stroke-width: 4.4 } 
		.s3 { fill: #ffffff;stroke: #000000;paint-order:stroke fill markers;stroke-width: 3.3 } 
	</style>
	<path id="Shape 1" fill-rule="evenodd" class="s0" d="m136 0h359.7c75.11 0 136 60.89 136 136v34c0 75.11-60.89 136-136 136h-359.7c-75.11 0-136-60.89-136-136v-34c0-75.11 60.89-136 136-136z"/>
	<path id="Shape 2" fill-rule="evenodd" class="s1" d="m132.54 13.6h353.03c43.19 0 78.2 35.01 78.2 78.2 0 43.19-35.01 78.2-78.2 78.2h-353.03c-43.19 0-78.2-35.01-78.2-78.2 0-43.19 35.01-78.2 78.2-78.2z"/>
	<path id="PG" class="s2" aria-label="PG"  d="m172 168.3v67.2q0 19.6 2.3 24.8 2.5 5 8.6 8.1 6.3 3 22.7 3v6.6h-123.3v-6.6q16.8 0 22.7-3 6.1-3.3 8.4-8.3 2.6-5 2.6-24.6v-157.2q0-19.7-2.6-24.7-2.3-5.2-8.4-8.2-6-3-22.7-3v-6.6h105.8q52.2 0 75 18.5 22.7 18.6 22.7 46.5 0 23.6-14.7 40.4-14.7 16.8-40.4 22.8-17.4 4.3-58.7 4.3zm7.3-118.6h-7.3v104.7q5.9 0.3 8.9 0.3 21.9 0 33.7-12.8 11.8-13.1 11.8-40.2 0-27-11.8-39.5-11.8-12.5-35.3-12.5zm349-19.5h6.6v85.4h-6.6q-12-35-36-53.2-24-18.2-52.4-18.2-27.2 0-45.3 15.3-18.1 15.2-25.6 42.5-7.5 27.4-7.5 56.1 0 34.9 8.2 61.1 8.2 26.3 26.5 38.6 18.4 12.3 43.7 12.3 8.7 0 17.9-1.7 9.3-2 18.9-5.6v-50.4q0-14.3-1.9-18.4-2-4.3-8.3-7.6-6.1-3.4-14.8-3.4h-6.3v-6.6h117.9v6.6q-13.4 0.9-18.7 3.7-5.2 2.7-8.1 9.1-1.6 3.4-1.6 16.6v50.4q-23.3 10.4-48.5 15.7-25.1 5.2-52.1 5.2-34.5 0-57.4-9.3-22.8-9.4-40.3-24.6-17.4-15.4-27.2-34.5-12.5-24.7-12.5-55.2 0-54.7 38.4-92.4 38.5-37.7 96.9-37.7 18 0 32.5 2.9 7.9 1.4 25.4 8.2 17.8 6.6 21 6.6 5 0 9.3-3.5 4.3-3.8 7.9-14z"/>
	<path id="TV" class="s3" aria-label="TV"  d="m561.3 258.2h70.5v20.5h-2.1q-1.8-7.1-4.1-10.2-2.3-3.1-6.2-4.9-2.2-1-7.7-1h-5.8v58.4q0 5.8 0.6 7.3 0.7 1.5 2.6 2.6 2 1 5.3 1h2.6v2.1h-41.1v-2.1h2.6q3.4 0 5.5-1.1 1.5-0.8 2.4-2.7 0.6-1.4 0.6-7.1v-58.4h-5.6q-8 0-11.5 3.2-5.1 4.5-6.4 12.9h-2.2zm129.3 0h25.8v2.1q-4.3 0.6-7.6 4.4-2.5 2.8-7.3 13.1l-27 58h-1.9l-26.9-60.3q-4.9-10.9-6.6-12.8-1.6-1.9-6.2-2.4v-2.1h37.7v2.1h-1.3q-5.1 0-7 1.2-1.3 0.8-1.3 2.5 0 1 0.5 2.4 0.4 1.3 3.1 7.3l16.7 37.7 15.5-33.6q2.8-6.1 3.4-8.1 0.7-2.1 0.7-3.6 0-1.6-0.9-2.9-1-1.3-2.8-2-2.5-0.9-6.6-0.9z"/>
</svg>